<svg width="852" height="173" viewBox="0 0 852 173" fill="none" xmlns="http://www.w3.org/2000/svg">
<path d="M0.785156 86.4628C0.785156 22.0703 22.249 0.606445 86.6415 0.606445C151.034 0.606445 172.498 22.0703 172.498 86.4628C172.498 150.855 151.034 172.319 86.6415 172.319C22.249 172.319 0.785156 150.855 0.785156 86.4628Z" fill="#FFC158"/>
<path fill-rule="evenodd" clip-rule="evenodd" d="M87.6364 43.3069L54.0302 94.6995C52.9641 96.3299 54.1338 98.4924 56.0817 98.4924H73.3912H82.3168H86.8913L81.1839 129.649C80.7019 132.28 84.1824 133.671 85.6465 131.432L119.253 80.0397C120.319 78.4093 119.149 76.2469 117.201 76.2469H96.4704H90.9661H86.3916L92.099 45.0901C92.5811 42.4588 89.1005 41.068 87.6364 43.3069Z" fill="white"/>
<path d="M275.795 39.9121C228.239 39.9121 216.35 50.1535 212.692 70.4533C209.216 90.7531 217.996 99.1656 258.601 99.1656C282.379 99.1656 289.147 99.1656 288.049 105.018C286.952 111.053 280.184 111.053 263.174 111.053C246.164 111.053 239.396 111.053 240.676 104.286H205.192C200.986 128.061 211.594 134.827 259.15 134.827C306.706 134.827 319.692 128.061 323.899 104.286C327.557 83.9865 317.132 75.391 276.343 75.391C252.565 75.391 245.798 75.2082 246.895 69.5389C247.993 63.5038 254.76 63.5038 271.771 63.5038C285.306 63.5038 295.549 63.5038 294.268 70.2704H328.106C331.764 49.4219 323.35 39.9121 275.795 39.9121Z" fill="#424B55"/>
<path d="M432.554 43.2041L424.728 87.2784C421.747 104.286 408.331 111.053 394.543 111.053C380.754 111.053 369.761 104.286 372.928 87.2784L380.754 43.2041H342.743L334.731 87.2784C328.582 121.111 346.842 134.828 377.959 134.828C402.182 134.828 417.834 124.586 417.834 124.586L420.07 131.353H454.541L470.379 43.2041H432.554Z" fill="#424B55"/>
<path d="M556.053 39.9121C531.83 39.9121 519.718 50.1534 519.718 50.1534L521.022 43.3868H483.011L459.906 172.318H497.918L506.489 124.769C506.489 124.769 515.06 135.01 539.283 135.01C570.4 135.01 596.3 124.769 603.008 87.4612C609.529 49.9706 587.17 39.9121 556.053 39.9121ZM564.81 87.2783C561.829 104.286 548.413 111.053 534.625 111.053C520.836 111.053 509.843 104.286 513.01 87.2783C515.992 70.2704 529.407 63.5038 543.196 63.5038C556.984 63.5038 567.791 70.2704 564.81 87.2783Z" fill="#424B55"/>
<path d="M682.128 39.9121C640.762 39.9121 615.981 52.7138 609.832 86.5468C603.683 120.38 623.806 134.827 665.172 134.827C694.239 134.827 710.077 129.707 724.984 116.539L702.81 102.457C697.966 105.384 692.748 111.053 669.457 111.053C653.806 111.053 646.725 105.201 647.098 93.3134H736.163C736.722 91.1188 737.281 88.9242 737.654 86.5468C743.617 52.5309 723.493 39.9121 682.128 39.9121ZM650.824 76.3054C655.296 66.7956 662.19 63.5038 677.842 63.5038C693.307 63.5038 699.27 66.6127 700.202 76.3054H650.824Z" fill="#424B55"/>
<path d="M791.216 49.9706L792.52 43.204H754.509L738.671 131.353H776.682C776.682 131.353 779.104 117.819 783.39 94.0449C787.676 70.2704 805.563 66.9785 819.352 66.9785C832.954 66.9785 837.426 68.4416 846.37 70.4533L851.214 43.3868C846.37 41.9238 834.817 39.9121 824.196 39.9121C799.973 39.9121 791.216 49.9706 791.216 49.9706Z" fill="#424B55"/>
</svg>
