<svg xmlns="http://www.w3.org/2000/svg" xmlns:xlink="http://www.w3.org/1999/xlink" viewBox="0 0 1004.2 1004.08"><defs><linearGradient id="a" x1="-5401.52" y1="9978.92" x2="-5401.52" y2="4716.47" gradientTransform="matrix(0.19, 0, 0, -0.19, 1528.51, 1899.99)" gradientUnits="userSpaceOnUse"><stop offset="0" stop-color="#61fd7d"/><stop offset="1" stop-color="#2bb826"/></linearGradient></defs><title>whatsapp-business-34</title><path d="M999.88,745.26c0,5.52-.17,17.42-.5,26.63-.79,22.52-2.62,51.6-5.31,64.87-4.07,19.91-10.2,38.69-18.21,54.33a193.7,193.7,0,0,1-85.19,85.11C875,984.2,856,990.34,836,994.41c-13.15,2.65-42,4.43-64.37,5.18-9.25.33-21.11.5-26.63.5L250.62,1000c-5.51,0-17.42-.16-26.62-.49-22.52-.79-51.6-2.62-64.87-5.31-19.91-4.07-38.7-10.2-54.33-18.21A193.84,193.84,0,0,1,19.69,890.8c-8-15.76-14.14-34.63-18.21-54.66C-1.17,823-3,794.16-3.7,771.77c-.33-9.25-.5-21.11-.5-26.63l.08-494.39c0-5.51.17-17.42.5-26.62.79-22.52,2.61-51.6,5.31-64.87C5.8,139.39,11.93,120.65,19.94,105A193.34,193.34,0,0,1,105.13,19.9c15.76-8,34.63-14.14,54.66-18.21C173-.92,201.81-2.7,224.2-3.45c9.21-.37,21.12-.54,26.59-.54l494.39.09c5.51,0,17.42.16,26.62.49,22.52.79,51.6,2.62,64.87,5.31C856.58,6,875.37,12.1,891,20.11a193.84,193.84,0,0,1,85.11,85.19c8,15.76,14.14,34.63,18.21,54.66,2.65,13.15,4.44,42,5.18,64.37.33,9.25.5,21.11.5,26.63l-.12,494.3Z" transform="translate(4.2 3.99)" fill-rule="evenodd" fill="url(#a)"/><path d="M763.92,233.54c-68-68-158.35-105.51-254.7-105.55-198.41,0-360,161.46-360,359.88a358.72,358.72,0,0,0,48.07,179.92L146.19,854.3,337,804.24a360.11,360.11,0,0,0,172,43.8h.16c198.42,0,360-161.46,360-359.92A357.65,357.65,0,0,0,763.92,233.54ZM509.26,787.32h-.12a299.56,299.56,0,0,1-152.3-41.68l-10.91-6.47L232.67,768.86l30.23-110.4-7.09-11.33A298.22,298.22,0,0,1,210.06,488c0-165,134.26-299.16,299.33-299.16A299.29,299.29,0,0,1,808.51,488.2C808.43,653.11,674.21,787.32,509.26,787.32Z" transform="translate(4.2 3.99)" fill="#fff" fill-rule="evenodd"/><path d="M388.53,662.23c2.53,1.53,7.76,1.53,19.66,1.53,50.64,0,94.4-.2,125.54-.2,145.25,0,141.44-152.92,73.54-172,10-17.63,55.25-50.73,27.21-119.16-27.67-67.65-146.87-52.3-228.41-52.26-30.15,0-25.67,22.27-25.5,56.95.25,54.91,0,203.48,0,267.72,0,13,4,15,8,17.42Zm62.88-56c13.72,0,46.08,0,73.82,0,31.4,0,59.35-14.73,58.69-46-.54-29.45-20.12-39.11-47.32-41.81-25.93.25-55.54.25-85.19.25v87.6Zm0-146.78c54.66-.75,75.69,2.19,105.55-5.27,20.49-11.66,29.45-54.79.13-69.43C536.72,374.52,476.5,378,451.41,379Z" transform="translate(4.2 3.99)" fill="#fff" fill-rule="evenodd"/></svg>